<?xml version="1.0" encoding="UTF-8" standalone="no"?>
<!DOCTYPE svg PUBLIC "-//W3C//DTD SVG 1.1//EN"
 "http://www.w3.org/Graphics/SVG/1.1/DTD/svg11.dtd">
<!-- Generated by graphviz version 2.38.0 (20140413.2041)
 -->
<!-- Title: %3 Pages: 1 -->
<svg width="1900pt" height="604pt"
 viewBox="0.00 0.00 1899.50 604.00" xmlns="http://www.w3.org/2000/svg" xmlns:xlink="http://www.w3.org/1999/xlink">
<g id="graph0" class="graph" transform="scale(1 1) rotate(0) translate(4 600)">
<title>%3</title>
<polygon fill="white" stroke="none" points="-4,4 -4,-600 1895.5,-600 1895.5,4 -4,4"/>
<!-- 0 -->
<g id="node1" class="node"><title>0</title>
<polygon fill="lightgray" stroke="black" points="418,-363 285,-363 285,-230 418,-230 418,-363"/>
<text text-anchor="middle" x="351.5" y="-331.3" font-family="Helvetica,sans-Serif" font-size="14.00">malimu.tgsrv.nl</text>
<text text-anchor="middle" x="351.5" y="-300.3" font-family="Helvetica,sans-Serif" font-size="14.00">tulsie&#45;production.ini</text>
<text text-anchor="middle" x="351.5" y="-285.3" font-family="Helvetica,sans-Serif" font-size="14.00">ixp&#45;production.ini</text>
<text text-anchor="middle" x="351.5" y="-254.3" font-family="Helvetica,sans-Serif" font-size="14.00">[webserver]</text>
</g>
<!-- 1 -->
<g id="node2" class="node"><title>1</title>
<polygon fill="lightgray" stroke="black" points="1028.5,-164 864.5,-164 864.5,-0 1028.5,-0 1028.5,-164"/>
<text text-anchor="middle" x="946.5" y="-116.8" font-family="Helvetica,sans-Serif" font-size="14.00">eleka.tgsrv.nl</text>
<text text-anchor="middle" x="946.5" y="-85.8" font-family="Helvetica,sans-Serif" font-size="14.00">tulsie&#45;production.ini</text>
<text text-anchor="middle" x="946.5" y="-70.8" font-family="Helvetica,sans-Serif" font-size="14.00">postgresql&#45;production.ini</text>
<text text-anchor="middle" x="946.5" y="-39.8" font-family="Helvetica,sans-Serif" font-size="14.00">[database]</text>
</g>
<!-- 0&#45;&gt;1 -->
<g id="edge1" class="edge"><title>0&#45;&gt;1</title>
<path fill="none" stroke="black" stroke-dasharray="5,2" d="M405.036,-229.693C412.102,-223.434 419.638,-217.687 427.5,-213 562.316,-132.625 745.275,-101.716 854.087,-89.9902"/>
<polygon fill="black" stroke="black" points="864.057,-88.9472 854.58,-94.4633 859.085,-89.4675 854.112,-89.9878 854.112,-89.9878 854.112,-89.9878 859.085,-89.4675 853.643,-85.5122 864.057,-88.9472 864.057,-88.9472"/>
<text text-anchor="middle" x="516.5" y="-185.4" font-family="Courier,monospace" font-size="12.00">[database]</text>
</g>
<!-- 2 -->
<g id="node3" class="node"><title>2</title>
<polygon fill="lightgray" stroke="black" points="1234,-586 1087,-586 1087,-439 1234,-439 1234,-586"/>
<text text-anchor="middle" x="1160.5" y="-562.3" font-family="Helvetica,sans-Serif" font-size="14.00">dahari.tgsrv.nl</text>
<text text-anchor="middle" x="1160.5" y="-531.3" font-family="Helvetica,sans-Serif" font-size="14.00">tulsie&#45;staging.ini</text>
<text text-anchor="middle" x="1160.5" y="-516.3" font-family="Helvetica,sans-Serif" font-size="14.00">tekenjetuin&#45;staging.ini</text>
<text text-anchor="middle" x="1160.5" y="-485.3" font-family="Helvetica,sans-Serif" font-size="14.00">[webserver]</text>
<text text-anchor="middle" x="1160.5" y="-470.3" font-family="Helvetica,sans-Serif" font-size="14.00">[elasticsearch]</text>
<text text-anchor="middle" x="1160.5" y="-455.3" font-family="Helvetica,sans-Serif" font-size="14.00">[psql]</text>
</g>
<!-- 3 -->
<g id="node4" class="node"><title>3</title>
<polygon fill="lightgray" stroke="black" points="584.5,-370.5 436.5,-370.5 436.5,-222.5 584.5,-222.5 584.5,-370.5"/>
<text text-anchor="middle" x="510.5" y="-331.3" font-family="Helvetica,sans-Serif" font-size="14.00">idadi.tgsrv.nl</text>
<text text-anchor="middle" x="510.5" y="-300.3" font-family="Helvetica,sans-Serif" font-size="14.00">weblate&#45;production.ini</text>
<text text-anchor="middle" x="510.5" y="-285.3" font-family="Helvetica,sans-Serif" font-size="14.00">tukio&#45;production.ini</text>
<text text-anchor="middle" x="510.5" y="-254.3" font-family="Helvetica,sans-Serif" font-size="14.00">[tukio]</text>
</g>
<!-- 3&#45;&gt;1 -->
<g id="edge2" class="edge"><title>3&#45;&gt;1</title>
<path fill="none" stroke="black" stroke-dasharray="5,2" d="M580.32,-222.257C584.64,-218.954 589.046,-215.84 593.5,-213 674.923,-161.084 780.05,-125.771 854.337,-105.201"/>
<polygon fill="black" stroke="black" points="864.151,-102.52 855.691,-109.497 859.328,-103.838 854.505,-105.156 854.505,-105.156 854.505,-105.156 859.328,-103.838 853.319,-100.815 864.151,-102.52 864.151,-102.52"/>
<text text-anchor="middle" x="685.5" y="-185.4" font-family="Courier,monospace" font-size="12.00">[database]</text>
</g>
<!-- 4 -->
<g id="node5" class="node"><title>4</title>
<polygon fill="lightgray" stroke="black" points="750.5,-370.5 602.5,-370.5 602.5,-222.5 750.5,-222.5 750.5,-370.5"/>
<text text-anchor="middle" x="676.5" y="-338.8" font-family="Helvetica,sans-Serif" font-size="14.00">propter.tgsrv.nl</text>
<text text-anchor="middle" x="676.5" y="-307.8" font-family="Helvetica,sans-Serif" font-size="14.00">chelezo&#45;production.ini</text>
<text text-anchor="middle" x="676.5" y="-292.8" font-family="Helvetica,sans-Serif" font-size="14.00">shmira&#45;production.ini</text>
<text text-anchor="middle" x="676.5" y="-261.8" font-family="Helvetica,sans-Serif" font-size="14.00">[webserver]</text>
<text text-anchor="middle" x="676.5" y="-246.8" font-family="Helvetica,sans-Serif" font-size="14.00">[nodejs]</text>
</g>
<!-- 4&#45;&gt;1 -->
<g id="edge3" class="edge"><title>4&#45;&gt;1</title>
<path fill="none" stroke="black" stroke-dasharray="5,2" d="M748.691,-222.314C752.296,-219.113 755.911,-215.992 759.5,-213 789.609,-187.899 824.443,-162.743 855.827,-141.339"/>
<polygon fill="black" stroke="black" points="864.152,-135.693 858.401,-145.03 860.014,-138.499 855.876,-141.306 855.876,-141.306 855.876,-141.306 860.014,-138.499 853.35,-137.581 864.152,-135.693 864.152,-135.693"/>
<text text-anchor="middle" x="837.5" y="-185.4" font-family="Courier,monospace" font-size="12.00">[database]</text>
</g>
<!-- 5 -->
<g id="node6" class="node"><title>5</title>
<polygon fill="lightgray" stroke="black" points="125,-575 7.10543e-15,-575 7.10543e-15,-450 125,-450 125,-575"/>
<text text-anchor="middle" x="62.5" y="-547.3" font-family="Helvetica,sans-Serif" font-size="14.00">biblio.tgsrv.nl</text>
<text text-anchor="middle" x="62.5" y="-516.3" font-family="Helvetica,sans-Serif" font-size="14.00">biblio&#45;inventory.ini</text>
<text text-anchor="middle" x="62.5" y="-485.3" font-family="Helvetica,sans-Serif" font-size="14.00">[web]</text>
<text text-anchor="middle" x="62.5" y="-470.3" font-family="Helvetica,sans-Serif" font-size="14.00">[mysql]</text>
</g>
<!-- 5&#45;&gt;4 -->
<g id="edge4" class="edge"><title>5&#45;&gt;4</title>
<path fill="none" stroke="black" stroke-dasharray="5,2" d="M108.687,-449.801C116.613,-441.968 125.291,-434.711 134.5,-429 180.583,-400.423 198.925,-406.362 252.5,-398 327.476,-386.298 524.136,-410.773 593.5,-380 596.334,-378.743 599.124,-377.343 601.867,-375.821"/>
<polygon fill="black" stroke="black" points="610.458,-370.572 604.27,-379.626 606.191,-373.179 601.924,-375.786 601.924,-375.786 601.924,-375.786 606.191,-373.179 599.578,-371.946 610.458,-370.572 610.458,-370.572"/>
<text text-anchor="middle" x="283" y="-401.4" font-family="Courier,monospace" font-size="12.00">[backup]</text>
</g>
<!-- 6 -->
<g id="node7" class="node"><title>6</title>
<polygon fill="lightgray" stroke="black" points="1419,-596 1252,-596 1252,-429 1419,-429 1419,-596"/>
<text text-anchor="middle" x="1335.5" y="-547.3" font-family="Helvetica,sans-Serif" font-size="14.00">gati.tgsrv.nl</text>
<text text-anchor="middle" x="1335.5" y="-516.3" font-family="Helvetica,sans-Serif" font-size="14.00">tweedegolf&#45;production.ini</text>
<text text-anchor="middle" x="1335.5" y="-501.3" font-family="Helvetica,sans-Serif" font-size="14.00">nww&#45;production.ini</text>
<text text-anchor="middle" x="1335.5" y="-470.3" font-family="Helvetica,sans-Serif" font-size="14.00">[webserver]</text>
</g>
<!-- 7 -->
<g id="node8" class="node"><title>7</title>
<polygon fill="lightgray" stroke="black" points="269.5,-575.5 143.5,-575.5 143.5,-449.5 269.5,-449.5 269.5,-575.5"/>
<text text-anchor="middle" x="206.5" y="-539.8" font-family="Helvetica,sans-Serif" font-size="14.00">xoras.tgsrv.nl</text>
<text text-anchor="middle" x="206.5" y="-508.8" font-family="Helvetica,sans-Serif" font-size="14.00">xoras&#45;inventory.ini</text>
<text text-anchor="middle" x="206.5" y="-477.8" font-family="Helvetica,sans-Serif" font-size="14.00">[webserver]</text>
</g>
<!-- 7&#45;&gt;4 -->
<g id="edge5" class="edge"><title>7&#45;&gt;4</title>
<path fill="none" stroke="black" stroke-dasharray="5,2" d="M253.094,-449.372C260.909,-441.7 269.447,-434.601 278.5,-429 324.978,-400.245 343.664,-407.419 397.5,-398 483.669,-382.924 514.242,-417.021 593.5,-380 596.132,-378.771 598.728,-377.421 601.286,-375.969"/>
<polygon fill="black" stroke="black" points="609.823,-370.661 603.706,-379.763 605.577,-373.302 601.33,-375.942 601.33,-375.942 601.33,-375.942 605.577,-373.302 598.954,-372.12 609.823,-370.661 609.823,-370.661"/>
<text text-anchor="middle" x="428" y="-401.4" font-family="Courier,monospace" font-size="12.00">[backup]</text>
</g>
<!-- 8 -->
<g id="node9" class="node"><title>8</title>
<polygon fill="lightgray" stroke="black" points="415,-576 288,-576 288,-449 415,-449 415,-576"/>
<text text-anchor="middle" x="351.5" y="-539.8" font-family="Helvetica,sans-Serif" font-size="14.00">yetu.tgsrv.nl</text>
<text text-anchor="middle" x="351.5" y="-508.8" font-family="Helvetica,sans-Serif" font-size="14.00">yetu&#45;production.ini</text>
<text text-anchor="middle" x="351.5" y="-477.8" font-family="Helvetica,sans-Serif" font-size="14.00">[webserver]</text>
</g>
<!-- 8&#45;&gt;4 -->
<g id="edge6" class="edge"><title>8&#45;&gt;4</title>
<path fill="none" stroke="black" stroke-dasharray="5,2" d="M399.184,-448.946C406.731,-441.527 414.904,-434.612 423.5,-429 462.108,-403.796 478.137,-410.559 522.5,-398 553.823,-389.133 565.174,-396.043 593.5,-380 595.511,-378.861 597.507,-377.66 599.486,-376.406"/>
<polygon fill="black" stroke="black" points="608.041,-370.584 602.305,-379.93 603.907,-373.397 599.774,-376.21 599.774,-376.21 599.774,-376.21 603.907,-373.397 597.242,-372.49 608.041,-370.584 608.041,-370.584"/>
<text text-anchor="middle" x="553" y="-401.4" font-family="Courier,monospace" font-size="12.00">[backup]</text>
</g>
<!-- 9 -->
<g id="node10" class="node"><title>9</title>
<polygon fill="lightgray" stroke="black" points="1121,-380 954,-380 954,-213 1121,-213 1121,-380"/>
<text text-anchor="middle" x="1037.5" y="-331.3" font-family="Helvetica,sans-Serif" font-size="14.00">sheria.tgsrv.nl</text>
<text text-anchor="middle" x="1037.5" y="-300.3" font-family="Helvetica,sans-Serif" font-size="14.00">hekkelman&#45;production.ini</text>
<text text-anchor="middle" x="1037.5" y="-269.3" font-family="Helvetica,sans-Serif" font-size="14.00">[webserver]</text>
<text text-anchor="middle" x="1037.5" y="-254.3" font-family="Helvetica,sans-Serif" font-size="14.00">[elasticsearch]</text>
</g>
<!-- 9&#45;&gt;1 -->
<g id="edge7" class="edge"><title>9&#45;&gt;1</title>
<path fill="none" stroke="black" stroke-dasharray="5,2" d="M1002.06,-212.733C996.555,-199.886 990.847,-186.557 985.276,-173.549"/>
<polygon fill="black" stroke="black" points="981.249,-164.145 989.322,-171.566 983.217,-168.741 985.186,-173.337 985.186,-173.337 985.186,-173.337 983.217,-168.741 981.049,-175.109 981.249,-164.145 981.249,-164.145"/>
<text text-anchor="middle" x="1030.5" y="-185.4" font-family="Courier,monospace" font-size="12.00">[database]</text>
</g>
<!-- 10 -->
<g id="node11" class="node"><title>10</title>
<polygon fill="lightgray" stroke="black" points="584,-588 433,-588 433,-437 584,-437 584,-588"/>
<text text-anchor="middle" x="508.5" y="-569.8" font-family="Helvetica,sans-Serif" font-size="14.00">wangwa.tgsrv.nl</text>
<text text-anchor="middle" x="508.5" y="-538.8" font-family="Helvetica,sans-Serif" font-size="14.00">pas&#45;reform&#45;preview.ini</text>
<text text-anchor="middle" x="508.5" y="-507.8" font-family="Helvetica,sans-Serif" font-size="14.00">[webserver]</text>
<text text-anchor="middle" x="508.5" y="-492.8" font-family="Helvetica,sans-Serif" font-size="14.00">[database]</text>
<text text-anchor="middle" x="508.5" y="-477.8" font-family="Helvetica,sans-Serif" font-size="14.00">[elasticsearch]</text>
<text text-anchor="middle" x="508.5" y="-462.8" font-family="Helvetica,sans-Serif" font-size="14.00">[frontend]</text>
<text text-anchor="middle" x="508.5" y="-447.8" font-family="Helvetica,sans-Serif" font-size="14.00">[backend]</text>
</g>
<!-- 10&#45;&gt;4 -->
<g id="edge8" class="edge"><title>10&#45;&gt;4</title>
<path fill="none" stroke="black" stroke-dasharray="5,2" d="M567.022,-436.954C581.771,-418.166 597.678,-397.904 612.673,-378.804"/>
<polygon fill="black" stroke="black" points="619.037,-370.696 616.402,-381.341 615.95,-374.629 612.862,-378.562 612.862,-378.562 612.862,-378.562 615.95,-374.629 609.323,-375.783 619.037,-370.696 619.037,-370.696"/>
<text text-anchor="middle" x="629" y="-401.4" font-family="Courier,monospace" font-size="12.00">[backup]</text>
</g>
<!-- 11 -->
<g id="node12" class="node"><title>11</title>
<polygon fill="lightgray" stroke="black" points="750.5,-586.5 602.5,-586.5 602.5,-438.5 750.5,-438.5 750.5,-586.5"/>
<text text-anchor="middle" x="676.5" y="-569.8" font-family="Helvetica,sans-Serif" font-size="14.00">vunja.tgsrv.nl</text>
<text text-anchor="middle" x="676.5" y="-538.8" font-family="Helvetica,sans-Serif" font-size="14.00">pas&#45;reform&#45;staging.ini</text>
<text text-anchor="middle" x="676.5" y="-507.8" font-family="Helvetica,sans-Serif" font-size="14.00">[webserver]</text>
<text text-anchor="middle" x="676.5" y="-492.8" font-family="Helvetica,sans-Serif" font-size="14.00">[database]</text>
<text text-anchor="middle" x="676.5" y="-477.8" font-family="Helvetica,sans-Serif" font-size="14.00">[elasticsearch]</text>
<text text-anchor="middle" x="676.5" y="-462.8" font-family="Helvetica,sans-Serif" font-size="14.00">[frontend]</text>
<text text-anchor="middle" x="676.5" y="-447.8" font-family="Helvetica,sans-Serif" font-size="14.00">[backend]</text>
</g>
<!-- 11&#45;&gt;4 -->
<g id="edge9" class="edge"><title>11&#45;&gt;4</title>
<path fill="none" stroke="black" stroke-dasharray="5,2" d="M676.5,-438.452C676.5,-419.875 676.5,-399.774 676.5,-380.732"/>
<polygon fill="black" stroke="black" points="676.5,-370.582 681,-380.582 676.5,-375.582 676.5,-380.582 676.5,-380.582 676.5,-380.582 676.5,-375.582 672,-380.582 676.5,-370.582 676.5,-370.582"/>
<text text-anchor="middle" x="707" y="-401.4" font-family="Courier,monospace" font-size="12.00">[backup]</text>
</g>
<!-- 12 -->
<g id="node13" class="node"><title>12</title>
<polygon fill="lightgray" stroke="black" points="1567.5,-577.5 1437.5,-577.5 1437.5,-447.5 1567.5,-447.5 1567.5,-577.5"/>
<text text-anchor="middle" x="1502.5" y="-562.3" font-family="Helvetica,sans-Serif" font-size="14.00">askja.tgsrv.nl</text>
<text text-anchor="middle" x="1502.5" y="-531.3" font-family="Helvetica,sans-Serif" font-size="14.00">asp&#45;production.ini</text>
<text text-anchor="middle" x="1502.5" y="-500.3" font-family="Helvetica,sans-Serif" font-size="14.00">[webserver]</text>
<text text-anchor="middle" x="1502.5" y="-485.3" font-family="Helvetica,sans-Serif" font-size="14.00">[ftpserver]</text>
<text text-anchor="middle" x="1502.5" y="-470.3" font-family="Helvetica,sans-Serif" font-size="14.00">[database]</text>
<text text-anchor="middle" x="1502.5" y="-455.3" font-family="Helvetica,sans-Serif" font-size="14.00">[elasticsearch]</text>
</g>
<!-- 13 -->
<g id="node14" class="node"><title>13</title>
<polygon fill="lightgray" stroke="black" points="1715.5,-577.5 1585.5,-577.5 1585.5,-447.5 1715.5,-447.5 1715.5,-577.5"/>
<text text-anchor="middle" x="1650.5" y="-562.3" font-family="Helvetica,sans-Serif" font-size="14.00">oppa.tgsrv.nl</text>
<text text-anchor="middle" x="1650.5" y="-531.3" font-family="Helvetica,sans-Serif" font-size="14.00">asp&#45;staging.ini</text>
<text text-anchor="middle" x="1650.5" y="-500.3" font-family="Helvetica,sans-Serif" font-size="14.00">[webserver]</text>
<text text-anchor="middle" x="1650.5" y="-485.3" font-family="Helvetica,sans-Serif" font-size="14.00">[ftpserver]</text>
<text text-anchor="middle" x="1650.5" y="-470.3" font-family="Helvetica,sans-Serif" font-size="14.00">[database]</text>
<text text-anchor="middle" x="1650.5" y="-455.3" font-family="Helvetica,sans-Serif" font-size="14.00">[elasticsearch]</text>
</g>
<!-- 14 -->
<g id="node15" class="node"><title>14</title>
<polygon fill="lightgray" stroke="black" points="884.5,-570.5 768.5,-570.5 768.5,-454.5 884.5,-454.5 884.5,-570.5"/>
<text text-anchor="middle" x="826.5" y="-539.8" font-family="Helvetica,sans-Serif" font-size="14.00">jambo.tgsrv.nl</text>
<text text-anchor="middle" x="826.5" y="-508.8" font-family="Helvetica,sans-Serif" font-size="14.00">jambo&#45;testing.ini</text>
<text text-anchor="middle" x="826.5" y="-477.8" font-family="Helvetica,sans-Serif" font-size="14.00">[webserver]</text>
</g>
<!-- 14&#45;&gt;4 -->
<g id="edge10" class="edge"><title>14&#45;&gt;4</title>
<path fill="none" stroke="black" stroke-dasharray="5,2" d="M786.5,-454.433C770.281,-431.295 751.248,-404.141 733.615,-378.985"/>
<polygon fill="black" stroke="black" points="727.695,-370.539 737.12,-376.145 730.565,-374.633 733.435,-378.728 733.435,-378.728 733.435,-378.728 730.565,-374.633 729.75,-381.31 727.695,-370.539 727.695,-370.539"/>
<text text-anchor="middle" x="787" y="-401.4" font-family="Courier,monospace" font-size="12.00">[backup]</text>
</g>
<!-- 15 -->
<g id="node16" class="node"><title>15</title>
<polygon fill="lightgray" stroke="black" points="1272,-363 1139,-363 1139,-230 1272,-230 1272,-363"/>
<text text-anchor="middle" x="1205.5" y="-331.3" font-family="Helvetica,sans-Serif" font-size="14.00">najuma.tgsrv.nl</text>
<text text-anchor="middle" x="1205.5" y="-300.3" font-family="Helvetica,sans-Serif" font-size="14.00">slash&#45;production.ini</text>
<text text-anchor="middle" x="1205.5" y="-269.3" font-family="Helvetica,sans-Serif" font-size="14.00">[webserver]</text>
<text text-anchor="middle" x="1205.5" y="-254.3" font-family="Helvetica,sans-Serif" font-size="14.00">[nodejs]</text>
</g>
<!-- 15&#45;&gt;1 -->
<g id="edge11" class="edge"><title>15&#45;&gt;1</title>
<path fill="none" stroke="black" stroke-dasharray="5,2" d="M1147.4,-229.837C1141.51,-223.98 1135.49,-218.277 1129.5,-213 1100.9,-187.809 1067.44,-162.892 1037.01,-141.715"/>
<polygon fill="black" stroke="black" points="1028.51,-135.845 1039.3,-137.828 1032.63,-138.687 1036.74,-141.53 1036.74,-141.53 1036.74,-141.53 1032.63,-138.687 1034.18,-145.232 1028.51,-135.845 1028.51,-135.845"/>
<text text-anchor="middle" x="1144.5" y="-185.4" font-family="Courier,monospace" font-size="12.00">[database]</text>
</g>
<!-- 16 -->
<g id="node17" class="node"><title>16</title>
<polygon fill="lightgray" stroke="black" points="1409,-356 1290,-356 1290,-237 1409,-237 1409,-356"/>
<text text-anchor="middle" x="1349.5" y="-323.8" font-family="Helvetica,sans-Serif" font-size="14.00">heri.tgsrv.nl</text>
<text text-anchor="middle" x="1349.5" y="-292.8" font-family="Helvetica,sans-Serif" font-size="14.00">jira&#45;production.ini</text>
<text text-anchor="middle" x="1349.5" y="-261.8" font-family="Helvetica,sans-Serif" font-size="14.00">[webserver]</text>
</g>
<!-- 16&#45;&gt;1 -->
<g id="edge12" class="edge"><title>16&#45;&gt;1</title>
<path fill="none" stroke="black" stroke-dasharray="5,2" d="M1306.88,-236.806C1298.8,-228.073 1289.9,-219.752 1280.5,-213 1207,-160.228 1109.24,-125.463 1038.49,-105.275"/>
<polygon fill="black" stroke="black" points="1028.69,-102.523 1039.54,-100.895 1033.51,-103.875 1038.32,-105.227 1038.32,-105.227 1038.32,-105.227 1033.51,-103.875 1037.1,-109.56 1028.69,-102.523 1028.69,-102.523"/>
<text text-anchor="middle" x="1286.5" y="-185.4" font-family="Courier,monospace" font-size="12.00">[database]</text>
</g>
<!-- 17 -->
<g id="node18" class="node"><title>17</title>
<polygon fill="lightgray" stroke="black" points="1891.5,-591.5 1733.5,-591.5 1733.5,-433.5 1891.5,-433.5 1891.5,-591.5"/>
<text text-anchor="middle" x="1812.5" y="-554.8" font-family="Helvetica,sans-Serif" font-size="14.00">quorum.tgsrv.nl</text>
<text text-anchor="middle" x="1812.5" y="-523.8" font-family="Helvetica,sans-Serif" font-size="14.00">mandhari&#45;production.ini</text>
<text text-anchor="middle" x="1812.5" y="-492.8" font-family="Helvetica,sans-Serif" font-size="14.00">[webserver]</text>
<text text-anchor="middle" x="1812.5" y="-477.8" font-family="Helvetica,sans-Serif" font-size="14.00">[database]</text>
<text text-anchor="middle" x="1812.5" y="-462.8" font-family="Helvetica,sans-Serif" font-size="14.00">[nodejs]</text>
</g>
<!-- 18 -->
<g id="node19" class="node"><title>18</title>
<polygon fill="lightgray" stroke="black" points="1069,-596 902,-596 902,-429 1069,-429 1069,-596"/>
<text text-anchor="middle" x="985.5" y="-547.3" font-family="Helvetica,sans-Serif" font-size="14.00">taabu.tgsrv.nl</text>
<text text-anchor="middle" x="985.5" y="-516.3" font-family="Helvetica,sans-Serif" font-size="14.00">tekenjetuin&#45;production.ini</text>
<text text-anchor="middle" x="985.5" y="-485.3" font-family="Helvetica,sans-Serif" font-size="14.00">[web]</text>
<text text-anchor="middle" x="985.5" y="-470.3" font-family="Helvetica,sans-Serif" font-size="14.00">[elasticsearch]</text>
</g>
<!-- 18&#45;&gt;4 -->
<g id="edge14" class="edge"><title>18&#45;&gt;4</title>
<path fill="none" stroke="black" stroke-dasharray="5,2" d="M901.889,-434.613C899.101,-432.668 896.302,-430.791 893.5,-429 864.145,-410.235 854.292,-409.768 821.5,-398 794.493,-388.308 784.221,-394.566 759.5,-380 757.544,-378.848 755.601,-377.639 753.674,-376.381"/>
<polygon fill="black" stroke="black" points="745.327,-370.569 756.105,-372.59 749.431,-373.426 753.534,-376.283 753.534,-376.283 753.534,-376.283 749.431,-373.426 750.963,-379.976 745.327,-370.569 745.327,-370.569"/>
<text text-anchor="middle" x="890" y="-401.4" font-family="Courier,monospace" font-size="12.00">[backup]</text>
</g>
<!-- 19 -->
<g id="node20" class="node"><title>19</title>
<polygon fill="lightgray" stroke="black" points="936,-380 769,-380 769,-213 936,-213 936,-380"/>
<text text-anchor="middle" x="852.5" y="-323.8" font-family="Helvetica,sans-Serif" font-size="14.00">chafua.tgsrv.nl</text>
<text text-anchor="middle" x="852.5" y="-292.8" font-family="Helvetica,sans-Serif" font-size="14.00">tekenjetuin&#45;production.ini</text>
<text text-anchor="middle" x="852.5" y="-261.8" font-family="Helvetica,sans-Serif" font-size="14.00">[database]</text>
</g>
<!-- 18&#45;&gt;19 -->
<g id="edge13" class="edge"><title>18&#45;&gt;19</title>
<path fill="none" stroke="black" stroke-dasharray="5,2" d="M951.503,-428.955C946.229,-418.313 940.517,-407.741 934.5,-398 932.551,-394.845 930.513,-391.68 928.407,-388.519"/>
<polygon fill="black" stroke="black" points="922.682,-380.172 932.049,-385.874 925.51,-384.296 928.338,-388.419 928.338,-388.419 928.338,-388.419 925.51,-384.296 924.627,-390.964 922.682,-380.172 922.682,-380.172"/>
<text text-anchor="middle" x="964.5" y="-401.4" font-family="Courier,monospace" font-size="12.00">[psql]</text>
</g>
</g>
</svg>
