<?xml version="1.0" encoding="UTF-8" standalone="no"?>
<!DOCTYPE svg PUBLIC "-//W3C//DTD SVG 1.1//EN"
 "http://www.w3.org/Graphics/SVG/1.1/DTD/svg11.dtd">
<!-- Generated by graphviz version 2.38.0 (20140413.2041)
 -->
<!-- Title: %3 Pages: 1 -->
<svg width="1986pt" height="732pt"
 viewBox="0.00 0.00 1985.50 732.00" xmlns="http://www.w3.org/2000/svg" xmlns:xlink="http://www.w3.org/1999/xlink">
<g id="graph0" class="graph" transform="scale(1 1) rotate(0) translate(4 728)">
<title>%3</title>
<polygon fill="white" stroke="none" points="-4,4 -4,-728 1981.5,-728 1981.5,4 -4,4"/>
<!-- 0 -->
<g id="node1" class="node"><title>0</title>
<polygon fill="lightgray" stroke="black" points="205,-724 1.42109e-14,-724 1.42109e-14,-519 205,-519 205,-724"/>
<text text-anchor="middle" x="102.5" y="-708.8" font-family="Helvetica,sans-Serif" font-size="14.00">dahari.tgsrv.nl</text>
<text text-anchor="middle" x="102.5" y="-677.8" font-family="Helvetica,sans-Serif" font-size="14.00">qualitytime&#45;staging.ini</text>
<text text-anchor="middle" x="102.5" y="-662.8" font-family="Helvetica,sans-Serif" font-size="14.00">qualitytime&#45;production.ini</text>
<text text-anchor="middle" x="102.5" y="-647.8" font-family="Helvetica,sans-Serif" font-size="14.00">tekenjetuin&#45;staging.ini</text>
<text text-anchor="middle" x="102.5" y="-632.8" font-family="Helvetica,sans-Serif" font-size="14.00">tulsie&#45;staging.ini</text>
<text text-anchor="middle" x="102.5" y="-617.8" font-family="Helvetica,sans-Serif" font-size="14.00">hekkelman&#45;staging.ini</text>
<text text-anchor="middle" x="102.5" y="-602.8" font-family="Helvetica,sans-Serif" font-size="14.00">oss&#45;production.ini</text>
<text text-anchor="middle" x="102.5" y="-571.8" font-family="Helvetica,sans-Serif" font-size="14.00">[webserver]</text>
<text text-anchor="middle" x="102.5" y="-556.8" font-family="Helvetica,sans-Serif" font-size="14.00">[database]</text>
<text text-anchor="middle" x="102.5" y="-541.8" font-family="Helvetica,sans-Serif" font-size="14.00">[elasticsearch]</text>
<text text-anchor="middle" x="102.5" y="-526.8" font-family="Helvetica,sans-Serif" font-size="14.00">[psql]</text>
</g>
<!-- 1 -->
<g id="node2" class="node"><title>1</title>
<polygon fill="lightgray" stroke="black" points="380.5,-700.5 222.5,-700.5 222.5,-542.5 380.5,-542.5 380.5,-700.5"/>
<text text-anchor="middle" x="301.5" y="-663.8" font-family="Helvetica,sans-Serif" font-size="14.00">quorum.tgsrv.nl</text>
<text text-anchor="middle" x="301.5" y="-632.8" font-family="Helvetica,sans-Serif" font-size="14.00">mandhari&#45;production.ini</text>
<text text-anchor="middle" x="301.5" y="-601.8" font-family="Helvetica,sans-Serif" font-size="14.00">[webserver]</text>
<text text-anchor="middle" x="301.5" y="-586.8" font-family="Helvetica,sans-Serif" font-size="14.00">[database]</text>
<text text-anchor="middle" x="301.5" y="-571.8" font-family="Helvetica,sans-Serif" font-size="14.00">[nodejs]</text>
</g>
<!-- 2 -->
<g id="node3" class="node"><title>2</title>
<polygon fill="lightgray" stroke="black" points="1811.5,-470 1591.5,-470 1591.5,-250 1811.5,-250 1811.5,-470"/>
<text text-anchor="middle" x="1701.5" y="-454.8" font-family="Helvetica,sans-Serif" font-size="14.00">malimu.tgsrv.nl</text>
<text text-anchor="middle" x="1701.5" y="-423.8" font-family="Helvetica,sans-Serif" font-size="14.00">productprices&#45;production.ini</text>
<text text-anchor="middle" x="1701.5" y="-408.8" font-family="Helvetica,sans-Serif" font-size="14.00">rct&#45;production.ini</text>
<text text-anchor="middle" x="1701.5" y="-393.8" font-family="Helvetica,sans-Serif" font-size="14.00">tulsie&#45;production.ini</text>
<text text-anchor="middle" x="1701.5" y="-378.8" font-family="Helvetica,sans-Serif" font-size="14.00">quiz&#45;production.ini</text>
<text text-anchor="middle" x="1701.5" y="-363.8" font-family="Helvetica,sans-Serif" font-size="14.00">piep&#45;production.ini</text>
<text text-anchor="middle" x="1701.5" y="-348.8" font-family="Helvetica,sans-Serif" font-size="14.00">ixp&#45;production.ini</text>
<text text-anchor="middle" x="1701.5" y="-333.8" font-family="Helvetica,sans-Serif" font-size="14.00">boekenquiz&#45;production.ini</text>
<text text-anchor="middle" x="1701.5" y="-318.8" font-family="Helvetica,sans-Serif" font-size="14.00">localhero&#45;production.ini</text>
<text text-anchor="middle" x="1701.5" y="-287.8" font-family="Helvetica,sans-Serif" font-size="14.00">[webserver]</text>
<text text-anchor="middle" x="1701.5" y="-272.8" font-family="Helvetica,sans-Serif" font-size="14.00">[nodejs]</text>
<text text-anchor="middle" x="1701.5" y="-257.8" font-family="Helvetica,sans-Serif" font-size="14.00">[elasticsearch]</text>
</g>
<!-- 3 -->
<g id="node4" class="node"><title>3</title>
<polygon fill="lightgray" stroke="black" points="1203,-201 1002,-201 1002,-0 1203,-0 1203,-201"/>
<text text-anchor="middle" x="1102.5" y="-165.3" font-family="Helvetica,sans-Serif" font-size="14.00">propter.tgsrv.nl</text>
<text text-anchor="middle" x="1102.5" y="-134.3" font-family="Helvetica,sans-Serif" font-size="14.00">productprices&#45;production.ini</text>
<text text-anchor="middle" x="1102.5" y="-119.3" font-family="Helvetica,sans-Serif" font-size="14.00">shmira&#45;production.ini</text>
<text text-anchor="middle" x="1102.5" y="-104.3" font-family="Helvetica,sans-Serif" font-size="14.00">client&#45;dashboard&#45;production.ini</text>
<text text-anchor="middle" x="1102.5" y="-89.3" font-family="Helvetica,sans-Serif" font-size="14.00">chelezo&#45;production.ini</text>
<text text-anchor="middle" x="1102.5" y="-74.3" font-family="Helvetica,sans-Serif" font-size="14.00">release&#45;notes&#45;production.ini</text>
<text text-anchor="middle" x="1102.5" y="-43.3" font-family="Helvetica,sans-Serif" font-size="14.00">[webserver]</text>
<text text-anchor="middle" x="1102.5" y="-28.3" font-family="Helvetica,sans-Serif" font-size="14.00">[nodejs]</text>
</g>
<!-- 2&#45;&gt;3 -->
<g id="edge1" class="edge"><title>2&#45;&gt;3</title>
<path fill="none" stroke="black" stroke-dasharray="5,2" d="M1591.21,-255.255C1588.32,-253.428 1585.42,-251.673 1582.5,-250 1465.34,-182.792 1314.3,-142.558 1213.23,-121.254"/>
<polygon fill="black" stroke="black" points="1203.3,-119.189 1214.01,-116.82 1208.2,-120.207 1213.09,-121.226 1213.09,-121.226 1213.09,-121.226 1208.2,-120.207 1212.17,-125.632 1203.3,-119.189 1203.3,-119.189"/>
<text text-anchor="middle" x="1577" y="-222.4" font-family="Courier,monospace" font-size="12.00">[backup]</text>
</g>
<!-- 4 -->
<g id="node5" class="node"><title>4</title>
<polygon fill="lightgray" stroke="black" points="1977.5,-434 1829.5,-434 1829.5,-286 1977.5,-286 1977.5,-434"/>
<text text-anchor="middle" x="1903.5" y="-409.8" font-family="Helvetica,sans-Serif" font-size="14.00">idadi.tgsrv.nl</text>
<text text-anchor="middle" x="1903.5" y="-378.8" font-family="Helvetica,sans-Serif" font-size="14.00">tukio&#45;production.ini</text>
<text text-anchor="middle" x="1903.5" y="-363.8" font-family="Helvetica,sans-Serif" font-size="14.00">docs&#45;production.ini</text>
<text text-anchor="middle" x="1903.5" y="-348.8" font-family="Helvetica,sans-Serif" font-size="14.00">weblate&#45;production.ini</text>
<text text-anchor="middle" x="1903.5" y="-317.8" font-family="Helvetica,sans-Serif" font-size="14.00">[tukio]</text>
<text text-anchor="middle" x="1903.5" y="-302.8" font-family="Helvetica,sans-Serif" font-size="14.00">[webserver]</text>
</g>
<!-- 4&#45;&gt;3 -->
<g id="edge2" class="edge"><title>4&#45;&gt;3</title>
<path fill="none" stroke="black" stroke-dasharray="5,2" d="M1859.65,-285.999C1848.43,-272.267 1835.29,-259.316 1820.5,-250 1720.58,-187.082 1388.4,-137.366 1213.07,-114.762"/>
<polygon fill="black" stroke="black" points="1203.04,-113.476 1213.53,-110.284 1208,-114.112 1212.96,-114.748 1212.96,-114.748 1212.96,-114.748 1208,-114.112 1212.39,-119.211 1203.04,-113.476 1203.04,-113.476"/>
<text text-anchor="middle" x="1809" y="-222.4" font-family="Courier,monospace" font-size="12.00">[backup]</text>
</g>
<!-- 5 -->
<g id="node6" class="node"><title>5</title>
<polygon fill="lightgray" stroke="black" points="621.5,-418 505.5,-418 505.5,-302 621.5,-302 621.5,-418"/>
<text text-anchor="middle" x="563.5" y="-387.3" font-family="Helvetica,sans-Serif" font-size="14.00">jambo.tgsrv.nl</text>
<text text-anchor="middle" x="563.5" y="-356.3" font-family="Helvetica,sans-Serif" font-size="14.00">jambo&#45;testing.ini</text>
<text text-anchor="middle" x="563.5" y="-325.3" font-family="Helvetica,sans-Serif" font-size="14.00">[webserver]</text>
</g>
<!-- 5&#45;&gt;3 -->
<g id="edge3" class="edge"><title>5&#45;&gt;3</title>
<path fill="none" stroke="black" stroke-dasharray="5,2" d="M588.462,-301.835C599.068,-283.082 613.07,-263.59 630.5,-250 736.384,-167.443 888.913,-130.34 991.664,-113.962"/>
<polygon fill="black" stroke="black" points="1001.76,-112.394 992.568,-118.376 996.818,-113.162 991.878,-113.929 991.878,-113.929 991.878,-113.929 996.818,-113.162 991.187,-109.482 1001.76,-112.394 1001.76,-112.394"/>
<text text-anchor="middle" x="705" y="-222.4" font-family="Courier,monospace" font-size="12.00">[backup]</text>
</g>
<!-- 6 -->
<g id="node7" class="node"><title>6</title>
<polygon fill="lightgray" stroke="black" points="803.5,-442 639.5,-442 639.5,-278 803.5,-278 803.5,-442"/>
<text text-anchor="middle" x="721.5" y="-387.3" font-family="Helvetica,sans-Serif" font-size="14.00">eleka.tgsrv.nl</text>
<text text-anchor="middle" x="721.5" y="-356.3" font-family="Helvetica,sans-Serif" font-size="14.00">postgresql&#45;production.ini</text>
<text text-anchor="middle" x="721.5" y="-325.3" font-family="Helvetica,sans-Serif" font-size="14.00">[database]</text>
</g>
<!-- 6&#45;&gt;3 -->
<g id="edge4" class="edge"><title>6&#45;&gt;3</title>
<path fill="none" stroke="black" stroke-dasharray="5,2" d="M783.667,-277.778C793.083,-267.812 803.134,-258.25 813.5,-250 867.435,-207.075 935.728,-171.294 992.382,-145.617"/>
<polygon fill="black" stroke="black" points="1001.73,-141.423 994.449,-149.622 997.17,-143.469 992.608,-145.516 992.608,-145.516 992.608,-145.516 997.17,-143.469 990.766,-141.41 1001.73,-141.423 1001.73,-141.423"/>
<text text-anchor="middle" x="886" y="-222.4" font-family="Courier,monospace" font-size="12.00">[backup]</text>
</g>
<!-- 7 -->
<g id="node8" class="node"><title>7</title>
<polygon fill="lightgray" stroke="black" points="488,-443.5 321,-443.5 321,-276.5 488,-276.5 488,-443.5"/>
<text text-anchor="middle" x="404.5" y="-394.8" font-family="Helvetica,sans-Serif" font-size="14.00">taabu.tgsrv.nl</text>
<text text-anchor="middle" x="404.5" y="-363.8" font-family="Helvetica,sans-Serif" font-size="14.00">tekenjetuin&#45;production.ini</text>
<text text-anchor="middle" x="404.5" y="-332.8" font-family="Helvetica,sans-Serif" font-size="14.00">[web]</text>
<text text-anchor="middle" x="404.5" y="-317.8" font-family="Helvetica,sans-Serif" font-size="14.00">[elasticsearch]</text>
</g>
<!-- 7&#45;&gt;3 -->
<g id="edge6" class="edge"><title>7&#45;&gt;3</title>
<path fill="none" stroke="black" stroke-dasharray="5,2" d="M465.087,-276.242C474.783,-266.457 485.332,-257.355 496.5,-250 648.765,-149.715 862.773,-117.107 991.511,-106.535"/>
<polygon fill="black" stroke="black" points="1001.78,-105.724 992.165,-110.998 996.795,-106.118 991.81,-106.511 991.81,-106.511 991.81,-106.511 996.795,-106.118 991.456,-102.025 1001.78,-105.724 1001.78,-105.724"/>
<text text-anchor="middle" x="571" y="-222.4" font-family="Courier,monospace" font-size="12.00">[backup]</text>
</g>
<!-- 8 -->
<g id="node9" class="node"><title>8</title>
<polygon fill="lightgray" stroke="black" points="488,-184 321,-184 321,-17 488,-17 488,-184"/>
<text text-anchor="middle" x="404.5" y="-120.3" font-family="Helvetica,sans-Serif" font-size="14.00">chafua.tgsrv.nl</text>
<text text-anchor="middle" x="404.5" y="-89.3" font-family="Helvetica,sans-Serif" font-size="14.00">tekenjetuin&#45;production.ini</text>
</g>
<!-- 7&#45;&gt;8 -->
<g id="edge5" class="edge"><title>7&#45;&gt;8</title>
<path fill="none" stroke="black" stroke-dasharray="5,2" d="M404.5,-276.463C404.5,-250.244 404.5,-221.078 404.5,-194.193"/>
<polygon fill="black" stroke="black" points="404.5,-184.011 409,-194.011 404.5,-189.011 404.5,-194.011 404.5,-194.011 404.5,-194.011 404.5,-189.011 400,-194.012 404.5,-184.011 404.5,-184.011"/>
<text text-anchor="middle" x="427.5" y="-222.4" font-family="Courier,monospace" font-size="12.00">[psql]</text>
</g>
<!-- 9 -->
<g id="node10" class="node"><title>9</title>
<polygon fill="lightgray" stroke="black" points="1210.5,-686.5 1080.5,-686.5 1080.5,-556.5 1210.5,-556.5 1210.5,-686.5"/>
<text text-anchor="middle" x="1145.5" y="-671.3" font-family="Helvetica,sans-Serif" font-size="14.00">oppa.tgsrv.nl</text>
<text text-anchor="middle" x="1145.5" y="-640.3" font-family="Helvetica,sans-Serif" font-size="14.00">asp&#45;staging.ini</text>
<text text-anchor="middle" x="1145.5" y="-609.3" font-family="Helvetica,sans-Serif" font-size="14.00">[webserver]</text>
<text text-anchor="middle" x="1145.5" y="-594.3" font-family="Helvetica,sans-Serif" font-size="14.00">[ftpserver]</text>
<text text-anchor="middle" x="1145.5" y="-579.3" font-family="Helvetica,sans-Serif" font-size="14.00">[database]</text>
<text text-anchor="middle" x="1145.5" y="-564.3" font-family="Helvetica,sans-Serif" font-size="14.00">[elasticsearch]</text>
</g>
<!-- 10 -->
<g id="node11" class="node"><title>10</title>
<polygon fill="lightgray" stroke="black" points="1358.5,-686.5 1228.5,-686.5 1228.5,-556.5 1358.5,-556.5 1358.5,-686.5"/>
<text text-anchor="middle" x="1293.5" y="-671.3" font-family="Helvetica,sans-Serif" font-size="14.00">askja.tgsrv.nl</text>
<text text-anchor="middle" x="1293.5" y="-640.3" font-family="Helvetica,sans-Serif" font-size="14.00">asp&#45;production.ini</text>
<text text-anchor="middle" x="1293.5" y="-609.3" font-family="Helvetica,sans-Serif" font-size="14.00">[webserver]</text>
<text text-anchor="middle" x="1293.5" y="-594.3" font-family="Helvetica,sans-Serif" font-size="14.00">[ftpserver]</text>
<text text-anchor="middle" x="1293.5" y="-579.3" font-family="Helvetica,sans-Serif" font-size="14.00">[database]</text>
<text text-anchor="middle" x="1293.5" y="-564.3" font-family="Helvetica,sans-Serif" font-size="14.00">[elasticsearch]</text>
</g>
<!-- 11 -->
<g id="node12" class="node"><title>11</title>
<polygon fill="lightgray" stroke="black" points="949,-423.5 822,-423.5 822,-296.5 949,-296.5 949,-423.5"/>
<text text-anchor="middle" x="885.5" y="-387.3" font-family="Helvetica,sans-Serif" font-size="14.00">yetu.tgsrv.nl</text>
<text text-anchor="middle" x="885.5" y="-356.3" font-family="Helvetica,sans-Serif" font-size="14.00">yetu&#45;production.ini</text>
<text text-anchor="middle" x="885.5" y="-325.3" font-family="Helvetica,sans-Serif" font-size="14.00">[webserver]</text>
</g>
<!-- 11&#45;&gt;3 -->
<g id="edge7" class="edge"><title>11&#45;&gt;3</title>
<path fill="none" stroke="black" stroke-dasharray="5,2" d="M924.744,-296.226C935.188,-280.723 946.827,-264.433 958.5,-250 969.837,-235.982 982.266,-221.751 994.922,-207.93"/>
<polygon fill="black" stroke="black" points="1001.97,-200.297 998.492,-210.697 998.578,-203.97 995.186,-207.644 995.186,-207.644 995.186,-207.644 998.578,-203.97 991.88,-204.591 1001.97,-200.297 1001.97,-200.297"/>
<text text-anchor="middle" x="1014" y="-222.4" font-family="Courier,monospace" font-size="12.00">[backup]</text>
</g>
<!-- 12 -->
<g id="node13" class="node"><title>12</title>
<polygon fill="lightgray" stroke="black" points="1093.5,-423 967.5,-423 967.5,-297 1093.5,-297 1093.5,-423"/>
<text text-anchor="middle" x="1030.5" y="-387.3" font-family="Helvetica,sans-Serif" font-size="14.00">xoras.tgsrv.nl</text>
<text text-anchor="middle" x="1030.5" y="-356.3" font-family="Helvetica,sans-Serif" font-size="14.00">xoras&#45;inventory.ini</text>
<text text-anchor="middle" x="1030.5" y="-325.3" font-family="Helvetica,sans-Serif" font-size="14.00">[webserver]</text>
</g>
<!-- 12&#45;&gt;3 -->
<g id="edge8" class="edge"><title>12&#45;&gt;3</title>
<path fill="none" stroke="black" stroke-dasharray="5,2" d="M1047.84,-296.995C1055.05,-271.19 1063.65,-240.441 1071.87,-211.057"/>
<polygon fill="black" stroke="black" points="1074.64,-201.153 1076.28,-211.996 1073.29,-205.969 1071.94,-210.784 1071.94,-210.784 1071.94,-210.784 1073.29,-205.969 1067.61,-209.572 1074.64,-201.153 1074.64,-201.153"/>
<text text-anchor="middle" x="1099" y="-222.4" font-family="Courier,monospace" font-size="12.00">[backup]</text>
</g>
<!-- 13 -->
<g id="node14" class="node"><title>13</title>
<polygon fill="lightgray" stroke="black" points="565,-705 398,-705 398,-538 565,-538 565,-705"/>
<text text-anchor="middle" x="481.5" y="-656.3" font-family="Helvetica,sans-Serif" font-size="14.00">sheria.tgsrv.nl</text>
<text text-anchor="middle" x="481.5" y="-625.3" font-family="Helvetica,sans-Serif" font-size="14.00">hekkelman&#45;production.ini</text>
<text text-anchor="middle" x="481.5" y="-594.3" font-family="Helvetica,sans-Serif" font-size="14.00">[webserver]</text>
<text text-anchor="middle" x="481.5" y="-579.3" font-family="Helvetica,sans-Serif" font-size="14.00">[elasticsearch]</text>
</g>
<!-- 13&#45;&gt;6 -->
<g id="edge9" class="edge"><title>13&#45;&gt;6</title>
<path fill="none" stroke="black" stroke-dasharray="5,2" d="M556.089,-537.756C561.956,-531.387 567.81,-525.075 573.5,-519 586.607,-505.006 588.773,-500.277 603.5,-488 614.578,-478.765 619.768,-479.635 630.5,-470 637.505,-463.711 644.445,-456.873 651.184,-449.79"/>
<polygon fill="black" stroke="black" points="658.41,-442.021 654.894,-452.408 655.005,-445.682 651.599,-449.343 651.599,-449.343 651.599,-449.343 655.005,-445.682 648.304,-446.278 658.41,-442.021 658.41,-442.021"/>
<text text-anchor="middle" x="641.5" y="-491.4" font-family="Courier,monospace" font-size="12.00">[database]</text>
</g>
<!-- 14 -->
<g id="node15" class="node"><title>14</title>
<polygon fill="lightgray" stroke="black" points="716,-688 583,-688 583,-555 716,-555 716,-688"/>
<text text-anchor="middle" x="649.5" y="-656.3" font-family="Helvetica,sans-Serif" font-size="14.00">najuma.tgsrv.nl</text>
<text text-anchor="middle" x="649.5" y="-625.3" font-family="Helvetica,sans-Serif" font-size="14.00">slash&#45;production.ini</text>
<text text-anchor="middle" x="649.5" y="-594.3" font-family="Helvetica,sans-Serif" font-size="14.00">[webserver]</text>
<text text-anchor="middle" x="649.5" y="-579.3" font-family="Helvetica,sans-Serif" font-size="14.00">[nodejs]</text>
</g>
<!-- 14&#45;&gt;6 -->
<g id="edge10" class="edge"><title>14&#45;&gt;6</title>
<path fill="none" stroke="black" stroke-dasharray="5,2" d="M667.762,-554.682C676.407,-523.522 686.872,-485.804 696.262,-451.963"/>
<polygon fill="black" stroke="black" points="699.008,-442.065 700.671,-452.904 697.671,-446.883 696.334,-451.701 696.334,-451.701 696.334,-451.701 697.671,-446.883 691.998,-450.498 699.008,-442.065 699.008,-442.065"/>
<text text-anchor="middle" x="723.5" y="-491.4" font-family="Courier,monospace" font-size="12.00">[database]</text>
</g>
<!-- 15 -->
<g id="node16" class="node"><title>15</title>
<polygon fill="lightgray" stroke="black" points="1237,-422.5 1112,-422.5 1112,-297.5 1237,-297.5 1237,-422.5"/>
<text text-anchor="middle" x="1174.5" y="-394.8" font-family="Helvetica,sans-Serif" font-size="14.00">biblio.tgsrv.nl</text>
<text text-anchor="middle" x="1174.5" y="-363.8" font-family="Helvetica,sans-Serif" font-size="14.00">biblio&#45;inventory.ini</text>
<text text-anchor="middle" x="1174.5" y="-332.8" font-family="Helvetica,sans-Serif" font-size="14.00">[web]</text>
<text text-anchor="middle" x="1174.5" y="-317.8" font-family="Helvetica,sans-Serif" font-size="14.00">[mysql]</text>
</g>
<!-- 15&#45;&gt;3 -->
<g id="edge11" class="edge"><title>15&#45;&gt;3</title>
<path fill="none" stroke="black" stroke-dasharray="5,2" d="M1157.25,-297.322C1150.02,-271.456 1141.39,-240.579 1133.14,-211.075"/>
<polygon fill="black" stroke="black" points="1130.36,-201.132 1137.38,-209.551 1131.7,-205.947 1133.05,-210.762 1133.05,-210.762 1133.05,-210.762 1131.7,-205.947 1128.72,-211.974 1130.36,-201.132 1130.36,-201.132"/>
<text text-anchor="middle" x="1169" y="-222.4" font-family="Courier,monospace" font-size="12.00">[backup]</text>
</g>
<!-- 16 -->
<g id="node17" class="node"><title>16</title>
<polygon fill="lightgray" stroke="black" points="853,-681 734,-681 734,-562 853,-562 853,-681"/>
<text text-anchor="middle" x="793.5" y="-648.8" font-family="Helvetica,sans-Serif" font-size="14.00">heri.tgsrv.nl</text>
<text text-anchor="middle" x="793.5" y="-617.8" font-family="Helvetica,sans-Serif" font-size="14.00">jira&#45;production.ini</text>
<text text-anchor="middle" x="793.5" y="-586.8" font-family="Helvetica,sans-Serif" font-size="14.00">[webserver]</text>
</g>
<!-- 16&#45;&gt;6 -->
<g id="edge12" class="edge"><title>16&#45;&gt;6</title>
<path fill="none" stroke="black" stroke-dasharray="5,2" d="M782.729,-561.742C778.059,-538.604 772.137,-511.9 765.5,-488 762.224,-476.202 758.442,-463.905 754.499,-451.809"/>
<polygon fill="black" stroke="black" points="751.31,-442.165 758.722,-450.246 752.88,-446.912 754.45,-451.659 754.45,-451.659 754.45,-451.659 752.88,-446.912 750.177,-453.072 751.31,-442.165 751.31,-442.165"/>
<text text-anchor="middle" x="806.5" y="-491.4" font-family="Courier,monospace" font-size="12.00">[database]</text>
</g>
<!-- 17 -->
<g id="node18" class="node"><title>17</title>
<polygon fill="lightgray" stroke="black" points="1062,-717 871,-717 871,-526 1062,-526 1062,-717"/>
<text text-anchor="middle" x="966.5" y="-678.8" font-family="Helvetica,sans-Serif" font-size="14.00">gati.tgsrv.nl</text>
<text text-anchor="middle" x="966.5" y="-647.8" font-family="Helvetica,sans-Serif" font-size="14.00">research&#45;panel&#45;production.ini</text>
<text text-anchor="middle" x="966.5" y="-632.8" font-family="Helvetica,sans-Serif" font-size="14.00">tweedegolf&#45;production.ini</text>
<text text-anchor="middle" x="966.5" y="-617.8" font-family="Helvetica,sans-Serif" font-size="14.00">nww&#45;production.ini</text>
<text text-anchor="middle" x="966.5" y="-586.8" font-family="Helvetica,sans-Serif" font-size="14.00">[webserver]</text>
<text text-anchor="middle" x="966.5" y="-571.8" font-family="Helvetica,sans-Serif" font-size="14.00">[nodejs]</text>
<text text-anchor="middle" x="966.5" y="-556.8" font-family="Helvetica,sans-Serif" font-size="14.00">[ruby]</text>
</g>
<!-- 17&#45;&gt;6 -->
<g id="edge13" class="edge"><title>17&#45;&gt;6</title>
<path fill="none" stroke="black" stroke-dasharray="5,2" d="M890.269,-525.985C877.117,-512.389 862.989,-499.224 848.5,-488 834.672,-477.288 827.185,-480.895 813.5,-470 805.727,-463.811 798.13,-456.885 790.845,-449.604"/>
<polygon fill="black" stroke="black" points="783.67,-442.219 793.866,-446.255 787.154,-445.805 790.638,-449.391 790.638,-449.391 790.638,-449.391 787.154,-445.805 787.411,-452.527 783.67,-442.219 783.67,-442.219"/>
<text text-anchor="middle" x="900.5" y="-491.4" font-family="Courier,monospace" font-size="12.00">[database]</text>
</g>
<!-- 18 -->
<g id="node19" class="node"><title>18</title>
<polygon fill="lightgray" stroke="black" points="1403.5,-434 1255.5,-434 1255.5,-286 1403.5,-286 1403.5,-434"/>
<text text-anchor="middle" x="1329.5" y="-417.3" font-family="Helvetica,sans-Serif" font-size="14.00">vunja.tgsrv.nl</text>
<text text-anchor="middle" x="1329.5" y="-386.3" font-family="Helvetica,sans-Serif" font-size="14.00">pas&#45;reform&#45;staging.ini</text>
<text text-anchor="middle" x="1329.5" y="-355.3" font-family="Helvetica,sans-Serif" font-size="14.00">[webserver]</text>
<text text-anchor="middle" x="1329.5" y="-340.3" font-family="Helvetica,sans-Serif" font-size="14.00">[database]</text>
<text text-anchor="middle" x="1329.5" y="-325.3" font-family="Helvetica,sans-Serif" font-size="14.00">[elasticsearch]</text>
<text text-anchor="middle" x="1329.5" y="-310.3" font-family="Helvetica,sans-Serif" font-size="14.00">[frontend]</text>
<text text-anchor="middle" x="1329.5" y="-295.3" font-family="Helvetica,sans-Serif" font-size="14.00">[backend]</text>
</g>
<!-- 18&#45;&gt;3 -->
<g id="edge14" class="edge"><title>18&#45;&gt;3</title>
<path fill="none" stroke="black" stroke-dasharray="5,2" d="M1275.77,-285.925C1266.26,-273.73 1256.27,-261.36 1246.5,-250 1234.74,-236.332 1222.06,-222.314 1209.26,-208.609"/>
<polygon fill="black" stroke="black" points="1202.15,-201.031 1212.27,-205.242 1205.57,-204.677 1208.99,-208.322 1208.99,-208.322 1208.99,-208.322 1205.57,-204.677 1205.71,-211.402 1202.15,-201.031 1202.15,-201.031"/>
<text text-anchor="middle" x="1258" y="-222.4" font-family="Courier,monospace" font-size="12.00">[backup]</text>
</g>
<!-- 19 -->
<g id="node20" class="node"><title>19</title>
<polygon fill="lightgray" stroke="black" points="1573,-435.5 1422,-435.5 1422,-284.5 1573,-284.5 1573,-435.5"/>
<text text-anchor="middle" x="1497.5" y="-417.3" font-family="Helvetica,sans-Serif" font-size="14.00">wangwa.tgsrv.nl</text>
<text text-anchor="middle" x="1497.5" y="-386.3" font-family="Helvetica,sans-Serif" font-size="14.00">pas&#45;reform&#45;preview.ini</text>
<text text-anchor="middle" x="1497.5" y="-355.3" font-family="Helvetica,sans-Serif" font-size="14.00">[webserver]</text>
<text text-anchor="middle" x="1497.5" y="-340.3" font-family="Helvetica,sans-Serif" font-size="14.00">[database]</text>
<text text-anchor="middle" x="1497.5" y="-325.3" font-family="Helvetica,sans-Serif" font-size="14.00">[elasticsearch]</text>
<text text-anchor="middle" x="1497.5" y="-310.3" font-family="Helvetica,sans-Serif" font-size="14.00">[frontend]</text>
<text text-anchor="middle" x="1497.5" y="-295.3" font-family="Helvetica,sans-Serif" font-size="14.00">[backend]</text>
</g>
<!-- 19&#45;&gt;3 -->
<g id="edge15" class="edge"><title>19&#45;&gt;3</title>
<path fill="none" stroke="black" stroke-dasharray="5,2" d="M1446.93,-284.408C1436.47,-271.984 1424.84,-259.929 1412.5,-250 1352.91,-202.048 1275.28,-164.888 1212.62,-139.733"/>
<polygon fill="black" stroke="black" points="1203.09,-135.955 1214.04,-135.458 1207.74,-137.798 1212.39,-139.641 1212.39,-139.641 1212.39,-139.641 1207.74,-137.798 1210.73,-143.824 1203.09,-135.955 1203.09,-135.955"/>
<text text-anchor="middle" x="1413" y="-222.4" font-family="Courier,monospace" font-size="12.00">[backup]</text>
</g>
</g>
</svg>
