<?xml version="1.0" encoding="UTF-8" standalone="no"?>
<!DOCTYPE svg PUBLIC "-//W3C//DTD SVG 1.1//EN"
 "http://www.w3.org/Graphics/SVG/1.1/DTD/svg11.dtd">
<!-- Generated by graphviz version 2.38.0 (20140413.2041)
 -->
<!-- Title: %3 Pages: 1 -->
<svg width="15241pt" height="4617pt"
 viewBox="0.00 0.00 15240.50 4617.00" xmlns="http://www.w3.org/2000/svg" xmlns:xlink="http://www.w3.org/1999/xlink">
<g id="graph0" class="graph" transform="scale(1 1) rotate(0) translate(4 4613)">
<title>%3</title>
<polygon fill="white" stroke="none" points="-4,4 -4,-4613 15236.5,-4613 15236.5,4 -4,4"/>
<!-- 0 -->
<g id="node1" class="node"><title>0</title>
<polygon fill="lightgray" stroke="black" points="3775.5,-1343 3642.5,-1343 3642.5,-1210 3775.5,-1210 3775.5,-1343"/>
<text text-anchor="middle" x="3709" y="-1295.8" font-family="Helvetica,sans-Serif" font-size="14.00">malimu.tgsrv.nl</text>
<text text-anchor="middle" x="3709" y="-1264.8" font-family="Helvetica,sans-Serif" font-size="14.00">tulsie&#45;production.ini</text>
<text text-anchor="middle" x="3709" y="-1249.8" font-family="Helvetica,sans-Serif" font-size="14.00">[webserver]</text>
</g>
<!-- 1 -->
<g id="node2" class="node"><title>1</title>
<polygon fill="lightgray" stroke="black" points="8414.5,-133 8281.5,-133 8281.5,-0 8414.5,-0 8414.5,-133"/>
<text text-anchor="middle" x="8348" y="-85.8" font-family="Helvetica,sans-Serif" font-size="14.00">eleka.tgsrv.nl</text>
<text text-anchor="middle" x="8348" y="-54.8" font-family="Helvetica,sans-Serif" font-size="14.00">tulsie&#45;production.ini</text>
<text text-anchor="middle" x="8348" y="-39.8" font-family="Helvetica,sans-Serif" font-size="14.00">[database]</text>
</g>
<!-- 0&#45;&gt;1 -->
<g id="edge1" class="edge"><title>0&#45;&gt;1</title>
<path fill="none" stroke="black" stroke-dasharray="5,2" d="M3688.05,-1209.67C3632.09,-1019.48 3501.72,-464.851 3784,-182 3866.62,-99.2107 7679.14,-71.7367 8271.11,-67.9669"/>
<polygon fill="black" stroke="black" points="8281.24,-67.9027 8271.27,-72.4661 8276.24,-67.9345 8271.24,-67.9662 8271.24,-67.9662 8271.24,-67.9662 8276.24,-67.9345 8271.21,-63.4663 8281.24,-67.9027 8281.24,-67.9027"/>
<text text-anchor="middle" x="4029" y="-154.4" font-family="Courier,monospace" font-size="12.00">[database]</text>
</g>
<!-- 2 -->
<g id="node3" class="node"><title>2</title>
<polygon fill="lightgray" stroke="black" points="9297,-3629.5 9067,-3629.5 9067,-3399.5 9297,-3399.5 9297,-3629.5"/>
<text text-anchor="middle" x="9182" y="-3541.3" font-family="Helvetica,sans-Serif" font-size="14.00">dahari.tgsrv.nl</text>
<text text-anchor="middle" x="9182" y="-3510.3" font-family="Helvetica,sans-Serif" font-size="14.00">tulsie&#45;production.initulsie&#45;staging.ini</text>
<text text-anchor="middle" x="9182" y="-3495.3" font-family="Helvetica,sans-Serif" font-size="14.00">[webserver]</text>
<text text-anchor="middle" x="9182" y="-3480.3" font-family="Helvetica,sans-Serif" font-size="14.00">[database]</text>
</g>
<!-- 3 -->
<g id="node4" class="node"><title>3</title>
<polygon fill="lightgray" stroke="black" points="4154.5,-1457 3793.5,-1457 3793.5,-1096 4154.5,-1096 4154.5,-1457"/>
<text text-anchor="middle" x="3974" y="-1295.8" font-family="Helvetica,sans-Serif" font-size="14.00">idadi.tgsrv.nl</text>
<text text-anchor="middle" x="3974" y="-1264.8" font-family="Helvetica,sans-Serif" font-size="14.00">tulsie&#45;production.initulsie&#45;staging.iniweblate&#45;production.ini</text>
<text text-anchor="middle" x="3974" y="-1249.8" font-family="Helvetica,sans-Serif" font-size="14.00">[webserver]</text>
</g>
<!-- 3&#45;&gt;1 -->
<g id="edge2" class="edge"><title>3&#45;&gt;1</title>
<path fill="none" stroke="black" stroke-dasharray="5,2" d="M3944.94,-1095.79C3916.48,-849.229 3908.85,-410.668 4164,-182 4243.54,-110.714 7708.08,-73.7716 8271.06,-68.2343"/>
<polygon fill="black" stroke="black" points="8281.1,-68.1358 8271.15,-72.7337 8276.11,-68.1849 8271.11,-68.2339 8271.11,-68.2339 8271.11,-68.2339 8276.11,-68.1849 8271.06,-63.7342 8281.1,-68.1358 8281.1,-68.1358"/>
<text text-anchor="middle" x="4452" y="-154.4" font-family="Courier,monospace" font-size="12.00">[database]</text>
</g>
<!-- 4 -->
<g id="node5" class="node"><title>4</title>
<polygon fill="lightgray" stroke="black" points="4665,-1522.5 4173,-1522.5 4173,-1030.5 4665,-1030.5 4665,-1522.5"/>
<text text-anchor="middle" x="4419" y="-1295.8" font-family="Helvetica,sans-Serif" font-size="14.00">propter.tgsrv.nl</text>
<text text-anchor="middle" x="4419" y="-1264.8" font-family="Helvetica,sans-Serif" font-size="14.00">tulsie&#45;production.initulsie&#45;staging.iniweblate&#45;production.inichelezo&#45;production.ini</text>
<text text-anchor="middle" x="4419" y="-1249.8" font-family="Helvetica,sans-Serif" font-size="14.00">[webserver]</text>
</g>
<!-- 4&#45;&gt;1 -->
<g id="edge3" class="edge"><title>4&#45;&gt;1</title>
<path fill="none" stroke="black" stroke-dasharray="5,2" d="M4398.28,-1030.37C4391.74,-774.911 4427.18,-384.23 4674,-182 4818.05,-63.9741 7754.77,-65.991 8270.89,-67.2616"/>
<polygon fill="black" stroke="black" points="8281.2,-67.2877 8271.19,-71.7622 8276.2,-67.275 8271.2,-67.2623 8271.2,-67.2623 8271.2,-67.2623 8276.2,-67.275 8271.21,-62.7623 8281.2,-67.2877 8281.2,-67.2877"/>
<text text-anchor="middle" x="4811" y="-154.4" font-family="Courier,monospace" font-size="12.00">[database]</text>
</g>
<!-- 5 -->
<g id="node6" class="node"><title>5</title>
<polygon fill="lightgray" stroke="black" points="600,-3814.5 5.68434e-14,-3814.5 5.68434e-14,-3214.5 600,-3214.5 600,-3814.5"/>
<text text-anchor="middle" x="300" y="-3541.3" font-family="Helvetica,sans-Serif" font-size="14.00">biblio.tgsrv.nl</text>
<text text-anchor="middle" x="300" y="-3510.3" font-family="Helvetica,sans-Serif" font-size="14.00">tulsie&#45;production.initulsie&#45;staging.iniweblate&#45;production.inichelezo&#45;production.inibiblio&#45;inventory.ini</text>
<text text-anchor="middle" x="300" y="-3495.3" font-family="Helvetica,sans-Serif" font-size="14.00">[web]</text>
<text text-anchor="middle" x="300" y="-3480.3" font-family="Helvetica,sans-Serif" font-size="14.00">[mysql]</text>
</g>
<!-- 5&#45;&gt;4 -->
<g id="edge4" class="edge"><title>5&#45;&gt;4</title>
<path fill="none" stroke="black" stroke-dasharray="5,2" d="M294.443,-3214.32C307.544,-2959.45 371.633,-2605.84 609,-2420 690.932,-2355.85 1440.96,-2391.08 1545,-2389 1563.18,-2388.64 4148.79,-2382.34 4163,-2371 4409.48,-2174.17 4446.67,-1789.43 4440.66,-1532.87"/>
<polygon fill="black" stroke="black" points="4440.4,-1522.66 4445.15,-1532.54 4440.53,-1527.65 4440.66,-1532.65 4440.66,-1532.65 4440.66,-1532.65 4440.53,-1527.65 4436.16,-1532.77 4440.4,-1522.66 4440.4,-1522.66"/>
<text text-anchor="middle" x="1575.5" y="-2392.4" font-family="Courier,monospace" font-size="12.00">[backup]</text>
</g>
<!-- 6 -->
<g id="node7" class="node"><title>6</title>
<polygon fill="lightgray" stroke="black" points="10065,-3889.5 9315,-3889.5 9315,-3139.5 10065,-3139.5 10065,-3889.5"/>
<text text-anchor="middle" x="9690" y="-3548.8" font-family="Helvetica,sans-Serif" font-size="14.00">gati.tgsrv.nl</text>
<text text-anchor="middle" x="9690" y="-3517.8" font-family="Helvetica,sans-Serif" font-size="14.00">tulsie&#45;production.initulsie&#45;staging.iniweblate&#45;production.inichelezo&#45;production.inibiblio&#45;inventory.initweedegolf&#45;production.ini</text>
<text text-anchor="middle" x="9690" y="-3502.8" font-family="Helvetica,sans-Serif" font-size="14.00">[webserver]</text>
<text text-anchor="middle" x="9690" y="-3487.8" font-family="Helvetica,sans-Serif" font-size="14.00">[nodejs]</text>
<text text-anchor="middle" x="9690" y="-3472.8" font-family="Helvetica,sans-Serif" font-size="14.00">[ruby]</text>
</g>
<!-- 7 -->
<g id="node8" class="node"><title>7</title>
<polygon fill="lightgray" stroke="black" points="1478,-3944.5 618,-3944.5 618,-3084.5 1478,-3084.5 1478,-3944.5"/>
<text text-anchor="middle" x="1048" y="-3533.8" font-family="Helvetica,sans-Serif" font-size="14.00">xoras.tgsrv.nl</text>
<text text-anchor="middle" x="1048" y="-3502.8" font-family="Helvetica,sans-Serif" font-size="14.00">tulsie&#45;production.initulsie&#45;staging.iniweblate&#45;production.inichelezo&#45;production.inibiblio&#45;inventory.initweedegolf&#45;production.inixoras&#45;inventory.ini</text>
<text text-anchor="middle" x="1048" y="-3487.8" font-family="Helvetica,sans-Serif" font-size="14.00">[webserver]</text>
</g>
<!-- 7&#45;&gt;4 -->
<g id="edge5" class="edge"><title>7&#45;&gt;4</title>
<path fill="none" stroke="black" stroke-dasharray="5,2" d="M1104.56,-3084.27C1160.02,-2846.79 1269.79,-2570.1 1487,-2420 1556.53,-2371.95 2923.5,-2390.52 3008,-2389 3040.08,-2388.42 4138.01,-2391.13 4163,-2371 4408.53,-2173.18 4446.01,-1788.93 4440.32,-1532.73"/>
<polygon fill="black" stroke="black" points="4440.07,-1522.53 4444.81,-1532.41 4440.19,-1527.53 4440.31,-1532.52 4440.31,-1532.52 4440.31,-1532.52 4440.19,-1527.53 4435.81,-1532.64 4440.07,-1522.53 4440.07,-1522.53"/>
<text text-anchor="middle" x="3038.5" y="-2392.4" font-family="Courier,monospace" font-size="12.00">[backup]</text>
</g>
<!-- 8 -->
<g id="node9" class="node"><title>8</title>
<polygon fill="lightgray" stroke="black" points="2466,-3999.5 1496,-3999.5 1496,-3029.5 2466,-3029.5 2466,-3999.5"/>
<text text-anchor="middle" x="1981" y="-3533.8" font-family="Helvetica,sans-Serif" font-size="14.00">yetu.tgsrv.nl</text>
<text text-anchor="middle" x="1981" y="-3502.8" font-family="Helvetica,sans-Serif" font-size="14.00">tulsie&#45;production.initulsie&#45;staging.iniweblate&#45;production.inichelezo&#45;production.inibiblio&#45;inventory.initweedegolf&#45;production.inixoras&#45;inventory.iniyetu&#45;production.ini</text>
<text text-anchor="middle" x="1981" y="-3487.8" font-family="Helvetica,sans-Serif" font-size="14.00">[webserver]</text>
</g>
<!-- 8&#45;&gt;4 -->
<g id="edge6" class="edge"><title>8&#45;&gt;4</title>
<path fill="none" stroke="black" stroke-dasharray="5,2" d="M2076.09,-3029.4C2146.69,-2804.96 2268.05,-2557.89 2475,-2420 2494.52,-2406.99 4144.84,-2385.84 4163,-2371 4406.91,-2171.76 4444.94,-1788.6 4439.79,-1532.94"/>
<polygon fill="black" stroke="black" points="4439.56,-1522.76 4444.29,-1532.65 4439.68,-1527.76 4439.79,-1532.76 4439.79,-1532.76 4439.79,-1532.76 4439.68,-1527.76 4435.29,-1532.86 4439.56,-1522.76 4439.56,-1522.76"/>
<text text-anchor="middle" x="3645.5" y="-2392.4" font-family="Courier,monospace" font-size="12.00">[backup]</text>
</g>
<!-- 9 -->
<g id="node10" class="node"><title>9</title>
<polygon fill="lightgray" stroke="black" points="10218.5,-1837 9097.5,-1837 9097.5,-716 10218.5,-716 10218.5,-1837"/>
<text text-anchor="middle" x="9658" y="-1303.3" font-family="Helvetica,sans-Serif" font-size="14.00">sheria.tgsrv.nl</text>
<text text-anchor="middle" x="9658" y="-1272.3" font-family="Helvetica,sans-Serif" font-size="14.00">tulsie&#45;production.initulsie&#45;staging.iniweblate&#45;production.inichelezo&#45;production.inibiblio&#45;inventory.initweedegolf&#45;production.inixoras&#45;inventory.iniyetu&#45;production.inihekkelman&#45;production.ini</text>
<text text-anchor="middle" x="9658" y="-1257.3" font-family="Helvetica,sans-Serif" font-size="14.00">[webserver]</text>
<text text-anchor="middle" x="9658" y="-1242.3" font-family="Helvetica,sans-Serif" font-size="14.00">[elasticsearch]</text>
</g>
<!-- 9&#45;&gt;1 -->
<g id="edge7" class="edge"><title>9&#45;&gt;1</title>
<path fill="none" stroke="black" stroke-dasharray="5,2" d="M9485.97,-715.744C9397.74,-517.734 9269.51,-312.101 9088,-182 8982.63,-106.473 8592.27,-79.131 8424.95,-70.7368"/>
<polygon fill="black" stroke="black" points="8414.74,-70.2342 8424.95,-66.2314 8419.73,-70.4801 8424.73,-70.7259 8424.73,-70.7259 8424.73,-70.7259 8419.73,-70.4801 8424.51,-75.2205 8414.74,-70.2342 8414.74,-70.2342"/>
<text text-anchor="middle" x="9086" y="-154.4" font-family="Courier,monospace" font-size="12.00">[database]</text>
</g>
<!-- 10 -->
<g id="node11" class="node"><title>10</title>
<polygon fill="lightgray" stroke="black" points="3739.5,-4142 2484.5,-4142 2484.5,-2887 3739.5,-2887 3739.5,-4142"/>
<text text-anchor="middle" x="3112" y="-3563.8" font-family="Helvetica,sans-Serif" font-size="14.00">wangwa.tgsrv.nl</text>
<text text-anchor="middle" x="3112" y="-3532.8" font-family="Helvetica,sans-Serif" font-size="14.00">tulsie&#45;production.initulsie&#45;staging.iniweblate&#45;production.inichelezo&#45;production.inibiblio&#45;inventory.initweedegolf&#45;production.inixoras&#45;inventory.iniyetu&#45;production.inihekkelman&#45;production.inipas&#45;reform&#45;preview.ini</text>
<text text-anchor="middle" x="3112" y="-3517.8" font-family="Helvetica,sans-Serif" font-size="14.00">[webserver]</text>
<text text-anchor="middle" x="3112" y="-3502.8" font-family="Helvetica,sans-Serif" font-size="14.00">[database]</text>
<text text-anchor="middle" x="3112" y="-3487.8" font-family="Helvetica,sans-Serif" font-size="14.00">[elasticsearch]</text>
<text text-anchor="middle" x="3112" y="-3472.8" font-family="Helvetica,sans-Serif" font-size="14.00">[frontend]</text>
<text text-anchor="middle" x="3112" y="-3457.8" font-family="Helvetica,sans-Serif" font-size="14.00">[backend]</text>
</g>
<!-- 10&#45;&gt;4 -->
<g id="edge8" class="edge"><title>10&#45;&gt;4</title>
<path fill="none" stroke="black" stroke-dasharray="5,2" d="M3348.72,-2886.9C3446.14,-2708.68 3577.35,-2532.6 3749,-2420 3903.93,-2318.37 4024.85,-2494.47 4163,-2371 4396.58,-2162.25 4437.8,-1784.82 4436.11,-1532.65"/>
<polygon fill="black" stroke="black" points="4436.02,-1522.61 4440.61,-1532.57 4436.07,-1527.61 4436.11,-1532.61 4436.11,-1532.61 4436.11,-1532.61 4436.07,-1527.61 4431.61,-1532.65 4436.02,-1522.61 4436.02,-1522.61"/>
<text text-anchor="middle" x="4169.5" y="-2392.4" font-family="Courier,monospace" font-size="12.00">[backup]</text>
</g>
<!-- 11 -->
<g id="node12" class="node"><title>11</title>
<polygon fill="lightgray" stroke="black" points="5144,-4207.5 3758,-4207.5 3758,-2821.5 5144,-2821.5 5144,-4207.5"/>
<text text-anchor="middle" x="4451" y="-3563.8" font-family="Helvetica,sans-Serif" font-size="14.00">vunja.tgsrv.nl</text>
<text text-anchor="middle" x="4451" y="-3532.8" font-family="Helvetica,sans-Serif" font-size="14.00">tulsie&#45;production.initulsie&#45;staging.iniweblate&#45;production.inichelezo&#45;production.inibiblio&#45;inventory.initweedegolf&#45;production.inixoras&#45;inventory.iniyetu&#45;production.inihekkelman&#45;production.inipas&#45;reform&#45;preview.inipas&#45;reform&#45;staging.ini</text>
<text text-anchor="middle" x="4451" y="-3517.8" font-family="Helvetica,sans-Serif" font-size="14.00">[webserver]</text>
<text text-anchor="middle" x="4451" y="-3502.8" font-family="Helvetica,sans-Serif" font-size="14.00">[database]</text>
<text text-anchor="middle" x="4451" y="-3487.8" font-family="Helvetica,sans-Serif" font-size="14.00">[elasticsearch]</text>
<text text-anchor="middle" x="4451" y="-3472.8" font-family="Helvetica,sans-Serif" font-size="14.00">[frontend]</text>
<text text-anchor="middle" x="4451" y="-3457.8" font-family="Helvetica,sans-Serif" font-size="14.00">[backend]</text>
</g>
<!-- 11&#45;&gt;4 -->
<g id="edge9" class="edge"><title>11&#45;&gt;4</title>
<path fill="none" stroke="black" stroke-dasharray="5,2" d="M4441.09,-2821.33C4434.83,-2383.9 4427.11,-1844.23 4422.65,-1532.61"/>
<polygon fill="black" stroke="black" points="4422.51,-1522.54 4427.15,-1532.47 4422.58,-1527.54 4422.65,-1532.53 4422.65,-1532.53 4422.65,-1532.53 4422.58,-1527.54 4418.15,-1532.6 4422.51,-1522.54 4422.51,-1522.54"/>
<text text-anchor="middle" x="4465.5" y="-2392.4" font-family="Courier,monospace" font-size="12.00">[backup]</text>
</g>
<!-- 12 -->
<g id="node13" class="node"><title>12</title>
<polygon fill="lightgray" stroke="black" points="11576.5,-4261 10083.5,-4261 10083.5,-2768 11576.5,-2768 11576.5,-4261"/>
<text text-anchor="middle" x="10830" y="-3556.3" font-family="Helvetica,sans-Serif" font-size="14.00">askja.tgsrv.nl</text>
<text text-anchor="middle" x="10830" y="-3525.3" font-family="Helvetica,sans-Serif" font-size="14.00">tulsie&#45;production.initulsie&#45;staging.iniweblate&#45;production.inichelezo&#45;production.inibiblio&#45;inventory.initweedegolf&#45;production.inixoras&#45;inventory.iniyetu&#45;production.inihekkelman&#45;production.inipas&#45;reform&#45;preview.inipas&#45;reform&#45;staging.iniasp&#45;production.ini</text>
<text text-anchor="middle" x="10830" y="-3510.3" font-family="Helvetica,sans-Serif" font-size="14.00">[webserver]</text>
<text text-anchor="middle" x="10830" y="-3495.3" font-family="Helvetica,sans-Serif" font-size="14.00">[ftpserver]</text>
<text text-anchor="middle" x="10830" y="-3480.3" font-family="Helvetica,sans-Serif" font-size="14.00">[database]</text>
<text text-anchor="middle" x="10830" y="-3465.3" font-family="Helvetica,sans-Serif" font-size="14.00">[elasticsearch]</text>
</g>
<!-- 13 -->
<g id="node14" class="node"><title>13</title>
<polygon fill="lightgray" stroke="black" points="13175,-4304.5 11595,-4304.5 11595,-2724.5 13175,-2724.5 13175,-4304.5"/>
<text text-anchor="middle" x="12385" y="-3556.3" font-family="Helvetica,sans-Serif" font-size="14.00">oppa.tgsrv.nl</text>
<text text-anchor="middle" x="12385" y="-3525.3" font-family="Helvetica,sans-Serif" font-size="14.00">tulsie&#45;production.initulsie&#45;staging.iniweblate&#45;production.inichelezo&#45;production.inibiblio&#45;inventory.initweedegolf&#45;production.inixoras&#45;inventory.iniyetu&#45;production.inihekkelman&#45;production.inipas&#45;reform&#45;preview.inipas&#45;reform&#45;staging.iniasp&#45;production.iniasp&#45;staging.ini</text>
<text text-anchor="middle" x="12385" y="-3510.3" font-family="Helvetica,sans-Serif" font-size="14.00">[webserver]</text>
<text text-anchor="middle" x="12385" y="-3495.3" font-family="Helvetica,sans-Serif" font-size="14.00">[ftpserver]</text>
<text text-anchor="middle" x="12385" y="-3480.3" font-family="Helvetica,sans-Serif" font-size="14.00">[database]</text>
<text text-anchor="middle" x="12385" y="-3465.3" font-family="Helvetica,sans-Serif" font-size="14.00">[elasticsearch]</text>
</g>
<!-- 14 -->
<g id="node15" class="node"><title>14</title>
<polygon fill="lightgray" stroke="black" points="6841.5,-4354 5162.5,-4354 5162.5,-2675 6841.5,-2675 6841.5,-4354"/>
<text text-anchor="middle" x="6002" y="-3533.8" font-family="Helvetica,sans-Serif" font-size="14.00">jambo.tgsrv.nl</text>
<text text-anchor="middle" x="6002" y="-3502.8" font-family="Helvetica,sans-Serif" font-size="14.00">tulsie&#45;production.initulsie&#45;staging.iniweblate&#45;production.inichelezo&#45;production.inibiblio&#45;inventory.initweedegolf&#45;production.inixoras&#45;inventory.iniyetu&#45;production.inihekkelman&#45;production.inipas&#45;reform&#45;preview.inipas&#45;reform&#45;staging.iniasp&#45;production.iniasp&#45;staging.inijambo&#45;testing.ini</text>
<text text-anchor="middle" x="6002" y="-3487.8" font-family="Helvetica,sans-Serif" font-size="14.00">[webserver]</text>
</g>
<!-- 14&#45;&gt;4 -->
<g id="edge10" class="edge"><title>14&#45;&gt;4</title>
<path fill="none" stroke="black" stroke-dasharray="5,2" d="M5473.91,-2674.92C5378.5,-2575.1 5271.24,-2485.56 5153,-2420 5059.42,-2368.11 4754.31,-2441.7 4674,-2371 4438.73,-2163.9 4398.4,-1785.58 4400.95,-1532.82"/>
<polygon fill="black" stroke="black" points="4401.08,-1522.75 4405.45,-1532.81 4401.01,-1527.75 4400.95,-1532.75 4400.95,-1532.75 4400.95,-1532.75 4401.01,-1527.75 4396.45,-1532.7 4401.08,-1522.75 4401.08,-1522.75"/>
<text text-anchor="middle" x="5105.5" y="-2392.4" font-family="Courier,monospace" font-size="12.00">[backup]</text>
</g>
<!-- 15 -->
<g id="node16" class="node"><title>15</title>
<polygon fill="lightgray" stroke="black" points="12031.5,-2174 10236.5,-2174 10236.5,-379 12031.5,-379 12031.5,-2174"/>
<text text-anchor="middle" x="11134" y="-1303.3" font-family="Helvetica,sans-Serif" font-size="14.00">najuma.tgsrv.nl</text>
<text text-anchor="middle" x="11134" y="-1272.3" font-family="Helvetica,sans-Serif" font-size="14.00">tulsie&#45;production.initulsie&#45;staging.iniweblate&#45;production.inichelezo&#45;production.inibiblio&#45;inventory.initweedegolf&#45;production.inixoras&#45;inventory.iniyetu&#45;production.inihekkelman&#45;production.inipas&#45;reform&#45;preview.inipas&#45;reform&#45;staging.iniasp&#45;production.iniasp&#45;staging.inijambo&#45;testing.inislash&#45;production.ini</text>
<text text-anchor="middle" x="11134" y="-1257.3" font-family="Helvetica,sans-Serif" font-size="14.00">[webserver]</text>
<text text-anchor="middle" x="11134" y="-1242.3" font-family="Helvetica,sans-Serif" font-size="14.00">[nodejs]</text>
</g>
<!-- 15&#45;&gt;1 -->
<g id="edge11" class="edge"><title>15&#45;&gt;1</title>
<path fill="none" stroke="black" stroke-dasharray="5,2" d="M10508.6,-378.882C10422.3,-301.543 10328.2,-233.344 10227,-182 10064.4,-99.4772 8757.12,-73.8162 8424.68,-68.5938"/>
<polygon fill="black" stroke="black" points="8414.66,-68.438 8424.73,-64.0942 8419.66,-68.5158 8424.66,-68.5936 8424.66,-68.5936 8424.66,-68.5936 8419.66,-68.5158 8424.59,-73.0931 8414.66,-68.438 8414.66,-68.438"/>
<text text-anchor="middle" x="10193" y="-154.4" font-family="Courier,monospace" font-size="12.00">[database]</text>
</g>
<!-- 16 -->
<g id="node17" class="node"><title>16</title>
<polygon fill="lightgray" stroke="black" points="13948,-2225.5 12050,-2225.5 12050,-327.5 13948,-327.5 13948,-2225.5"/>
<text text-anchor="middle" x="12999" y="-1295.8" font-family="Helvetica,sans-Serif" font-size="14.00">heri.tgsrv.nl</text>
<text text-anchor="middle" x="12999" y="-1264.8" font-family="Helvetica,sans-Serif" font-size="14.00">tulsie&#45;production.initulsie&#45;staging.iniweblate&#45;production.inichelezo&#45;production.inibiblio&#45;inventory.initweedegolf&#45;production.inixoras&#45;inventory.iniyetu&#45;production.inihekkelman&#45;production.inipas&#45;reform&#45;preview.inipas&#45;reform&#45;staging.iniasp&#45;production.iniasp&#45;staging.inijambo&#45;testing.inislash&#45;production.inijira&#45;production.ini</text>
<text text-anchor="middle" x="12999" y="-1249.8" font-family="Helvetica,sans-Serif" font-size="14.00">[webserver]</text>
</g>
<!-- 16&#45;&gt;1 -->
<g id="edge12" class="edge"><title>16&#45;&gt;1</title>
<path fill="none" stroke="black" stroke-dasharray="5,2" d="M12274.5,-327.332C12200.8,-270.647 12122.5,-220.929 12040,-182 11870.8,-102.135 8939.82,-72.7122 8424.92,-68.1494"/>
<polygon fill="black" stroke="black" points="8414.63,-68.0587 8424.67,-63.6471 8419.63,-68.1028 8424.63,-68.147 8424.63,-68.147 8424.63,-68.147 8419.63,-68.1028 8424.59,-72.6468 8414.63,-68.0587 8414.63,-68.0587"/>
<text text-anchor="middle" x="11974" y="-154.4" font-family="Courier,monospace" font-size="12.00">[database]</text>
</g>
<!-- 17 -->
<g id="node18" class="node"><title>17</title>
<polygon fill="lightgray" stroke="black" points="15232.5,-4534 13193.5,-4534 13193.5,-2495 15232.5,-2495 15232.5,-4534"/>
<text text-anchor="middle" x="14213" y="-3548.8" font-family="Helvetica,sans-Serif" font-size="14.00">quorum.tgsrv.nl</text>
<text text-anchor="middle" x="14213" y="-3517.8" font-family="Helvetica,sans-Serif" font-size="14.00">tulsie&#45;production.initulsie&#45;staging.iniweblate&#45;production.inichelezo&#45;production.inibiblio&#45;inventory.initweedegolf&#45;production.inixoras&#45;inventory.iniyetu&#45;production.inihekkelman&#45;production.inipas&#45;reform&#45;preview.inipas&#45;reform&#45;staging.iniasp&#45;production.iniasp&#45;staging.inijambo&#45;testing.inislash&#45;production.inijira&#45;production.inimandhari&#45;production.ini</text>
<text text-anchor="middle" x="14213" y="-3502.8" font-family="Helvetica,sans-Serif" font-size="14.00">[webserver]</text>
<text text-anchor="middle" x="14213" y="-3487.8" font-family="Helvetica,sans-Serif" font-size="14.00">[database]</text>
<text text-anchor="middle" x="14213" y="-3472.8" font-family="Helvetica,sans-Serif" font-size="14.00">[nodejs]</text>
</g>
<!-- 18 -->
<g id="node19" class="node"><title>18</title>
<polygon fill="lightgray" stroke="black" points="9048.5,-4609 6859.5,-4609 6859.5,-2420 9048.5,-2420 9048.5,-4609"/>
<text text-anchor="middle" x="7954" y="-3541.3" font-family="Helvetica,sans-Serif" font-size="14.00">taabu.tgsrv.nl</text>
<text text-anchor="middle" x="7954" y="-3510.3" font-family="Helvetica,sans-Serif" font-size="14.00">tulsie&#45;production.initulsie&#45;staging.iniweblate&#45;production.inichelezo&#45;production.inibiblio&#45;inventory.initweedegolf&#45;production.inixoras&#45;inventory.iniyetu&#45;production.inihekkelman&#45;production.inipas&#45;reform&#45;preview.inipas&#45;reform&#45;staging.iniasp&#45;production.iniasp&#45;staging.inijambo&#45;testing.inislash&#45;production.inijira&#45;production.inimandhari&#45;production.initekenjetuin&#45;production.ini</text>
<text text-anchor="middle" x="7954" y="-3495.3" font-family="Helvetica,sans-Serif" font-size="14.00">[web]</text>
<text text-anchor="middle" x="7954" y="-3480.3" font-family="Helvetica,sans-Serif" font-size="14.00">[elasticsearch]</text>
</g>
<!-- 18&#45;&gt;4 -->
<g id="edge14" class="edge"><title>18&#45;&gt;4</title>
<path fill="none" stroke="black" stroke-dasharray="5,2" d="M6859.3,-2423.99C6856.2,-2422.65 6853.1,-2421.32 6850,-2420 6822.17,-2408.18 4697.47,-2390.06 4674,-2371 4429.48,-2172.41 4392.05,-1788.84 4397.7,-1532.94"/>
<polygon fill="black" stroke="black" points="4397.95,-1522.75 4402.2,-1532.86 4397.82,-1527.75 4397.7,-1532.75 4397.7,-1532.75 4397.7,-1532.75 4397.82,-1527.75 4393.2,-1532.64 4397.95,-1522.75 4397.95,-1522.75"/>
<text text-anchor="middle" x="5984.5" y="-2392.4" font-family="Courier,monospace" font-size="12.00">[backup]</text>
</g>
<!-- 19 -->
<g id="node20" class="node"><title>19</title>
<polygon fill="lightgray" stroke="black" points="6872.5,-2371 4683.5,-2371 4683.5,-182 6872.5,-182 6872.5,-2371"/>
<text text-anchor="middle" x="5778" y="-1295.8" font-family="Helvetica,sans-Serif" font-size="14.00">chafua.tgsrv.nl</text>
<text text-anchor="middle" x="5778" y="-1264.8" font-family="Helvetica,sans-Serif" font-size="14.00">tulsie&#45;production.initulsie&#45;staging.iniweblate&#45;production.inichelezo&#45;production.inibiblio&#45;inventory.initweedegolf&#45;production.inixoras&#45;inventory.iniyetu&#45;production.inihekkelman&#45;production.inipas&#45;reform&#45;preview.inipas&#45;reform&#45;staging.iniasp&#45;production.iniasp&#45;staging.inijambo&#45;testing.inislash&#45;production.inijira&#45;production.inimandhari&#45;production.initekenjetuin&#45;production.ini</text>
<text text-anchor="middle" x="5778" y="-1249.8" font-family="Helvetica,sans-Serif" font-size="14.00">[database]</text>
</g>
<!-- 18&#45;&gt;19 -->
<g id="edge13" class="edge"><title>18&#45;&gt;19</title>
<path fill="none" stroke="black" stroke-dasharray="5,2" d="M6889.51,-2419.65C6876.09,-2405.86 6862.66,-2392.07 6849.24,-2378.28"/>
<polygon fill="black" stroke="black" points="6842.22,-2371.07 6852.42,-2375.09 6845.71,-2374.65 6849.2,-2378.23 6849.2,-2378.23 6849.2,-2378.23 6845.71,-2374.65 6845.97,-2381.37 6842.22,-2371.07 6842.22,-2371.07"/>
<text text-anchor="middle" x="6889" y="-2392.4" font-family="Courier,monospace" font-size="12.00">[psql]</text>
</g>
<!-- 20 -->
<g id="node21" class="node"><title>20</title>
<polygon fill="lightgray" stroke="black" points="9079.5,-2371 6890.5,-2371 6890.5,-182 9079.5,-182 9079.5,-2371"/>
<text text-anchor="middle" x="7985" y="-1295.8" font-family="Helvetica,sans-Serif" font-size="14.00">web</text>
<text text-anchor="middle" x="7985" y="-1264.8" font-family="Helvetica,sans-Serif" font-size="14.00">tulsie&#45;production.initulsie&#45;staging.iniweblate&#45;production.inichelezo&#45;production.inibiblio&#45;inventory.initweedegolf&#45;production.inixoras&#45;inventory.iniyetu&#45;production.inihekkelman&#45;production.inipas&#45;reform&#45;preview.inipas&#45;reform&#45;staging.iniasp&#45;production.iniasp&#45;staging.inijambo&#45;testing.inislash&#45;production.inijira&#45;production.inimandhari&#45;production.initekenjetuin&#45;production.ini</text>
<text text-anchor="middle" x="7985" y="-1249.8" font-family="Helvetica,sans-Serif" font-size="14.00">[backup]</text>
</g>
<!-- 18&#45;&gt;20 -->
<g id="edge15" class="edge"><title>18&#45;&gt;20</title>
<path fill="none" stroke="black" stroke-dasharray="5,2" d="M7969.17,-2419.65C7969.34,-2406.88 7969.52,-2394.09 7969.7,-2381.31"/>
<polygon fill="black" stroke="black" points="7969.84,-2371.07 7974.2,-2381.13 7969.77,-2376.06 7969.7,-2381.06 7969.7,-2381.06 7969.7,-2381.06 7969.77,-2376.06 7965.2,-2381 7969.84,-2371.07 7969.84,-2371.07"/>
<text text-anchor="middle" x="8049" y="-2392.4" font-family="Courier,monospace" font-size="12.00">[production:children]</text>
</g>
</g>
</svg>
